<mxfile host="app.diagrams.net" modified="2022-07-02T15:09:34.356Z" agent="5.0 (Windows NT 10.0; Win64; x64) AppleWebKit/537.36 (KHTML, like Gecko) Chrome/102.0.5005.115 Safari/537.36" etag="iCQ4eulnvCRlgDmlsvtJ" version="17.2.4" type="github">
  <diagram id="hshtxvZ42yzvg_RlbgQT" name="Abstraction Arcitecture ">
    <mxGraphModel dx="1038" dy="551" grid="1" gridSize="10" guides="1" tooltips="1" connect="1" arrows="1" fold="1" page="1" pageScale="1" pageWidth="850" pageHeight="1100" math="0" shadow="0">
      <root>
        <mxCell id="0" />
        <mxCell id="1" parent="0" />
        <mxCell id="8dQdzf2l_l0jz66u7pEX-1" value="Micro Service &lt;br&gt;Code in java" style="rounded=1;whiteSpace=wrap;html=1;fillColor=#f8cecc;strokeColor=#b85450;" vertex="1" parent="1">
          <mxGeometry x="100" y="370" width="120" height="60" as="geometry" />
        </mxCell>
        <mxCell id="8dQdzf2l_l0jz66u7pEX-2" value="Micro Service&lt;br&gt;Code in pyhton" style="rounded=1;whiteSpace=wrap;html=1;fillColor=#d5e8d4;strokeColor=#82b366;" vertex="1" parent="1">
          <mxGeometry x="280" y="370" width="120" height="60" as="geometry" />
        </mxCell>
        <mxCell id="8dQdzf2l_l0jz66u7pEX-3" value="Micro Service&lt;br&gt;Code in nodeJS" style="rounded=1;whiteSpace=wrap;html=1;fillColor=#008a00;fontColor=#ffffff;strokeColor=#005700;" vertex="1" parent="1">
          <mxGeometry x="470" y="370" width="120" height="60" as="geometry" />
        </mxCell>
        <mxCell id="8dQdzf2l_l0jz66u7pEX-4" value="Micro Service&lt;br&gt;Code in c#" style="rounded=1;whiteSpace=wrap;html=1;fillColor=#1ba1e2;fontColor=#ffffff;strokeColor=#006EAF;" vertex="1" parent="1">
          <mxGeometry x="650" y="370" width="120" height="60" as="geometry" />
        </mxCell>
        <mxCell id="8dQdzf2l_l0jz66u7pEX-8" style="edgeStyle=orthogonalEdgeStyle;rounded=0;orthogonalLoop=1;jettySize=auto;html=1;" edge="1" parent="1" source="8dQdzf2l_l0jz66u7pEX-6" target="8dQdzf2l_l0jz66u7pEX-1">
          <mxGeometry relative="1" as="geometry" />
        </mxCell>
        <mxCell id="8dQdzf2l_l0jz66u7pEX-6" value="Mongo" style="shape=cylinder3;whiteSpace=wrap;html=1;boundedLbl=1;backgroundOutline=1;size=15;" vertex="1" parent="1">
          <mxGeometry x="70" y="470" width="60" height="60" as="geometry" />
        </mxCell>
        <mxCell id="8dQdzf2l_l0jz66u7pEX-9" style="edgeStyle=orthogonalEdgeStyle;rounded=0;orthogonalLoop=1;jettySize=auto;html=1;entryX=0.75;entryY=1;entryDx=0;entryDy=0;" edge="1" parent="1" source="8dQdzf2l_l0jz66u7pEX-7" target="8dQdzf2l_l0jz66u7pEX-1">
          <mxGeometry relative="1" as="geometry" />
        </mxCell>
        <mxCell id="8dQdzf2l_l0jz66u7pEX-7" value="Postgress" style="shape=cylinder3;whiteSpace=wrap;html=1;boundedLbl=1;backgroundOutline=1;size=15;" vertex="1" parent="1">
          <mxGeometry x="160" y="470" width="60" height="60" as="geometry" />
        </mxCell>
        <mxCell id="8dQdzf2l_l0jz66u7pEX-15" style="edgeStyle=orthogonalEdgeStyle;rounded=0;orthogonalLoop=1;jettySize=auto;html=1;entryX=0.197;entryY=1.003;entryDx=0;entryDy=0;entryPerimeter=0;" edge="1" parent="1" source="8dQdzf2l_l0jz66u7pEX-10" target="8dQdzf2l_l0jz66u7pEX-2">
          <mxGeometry relative="1" as="geometry" />
        </mxCell>
        <mxCell id="8dQdzf2l_l0jz66u7pEX-10" value="Mongo" style="shape=cylinder3;whiteSpace=wrap;html=1;boundedLbl=1;backgroundOutline=1;size=15;" vertex="1" parent="1">
          <mxGeometry x="270" y="470" width="60" height="60" as="geometry" />
        </mxCell>
        <mxCell id="8dQdzf2l_l0jz66u7pEX-14" style="edgeStyle=orthogonalEdgeStyle;rounded=0;orthogonalLoop=1;jettySize=auto;html=1;" edge="1" parent="1" source="8dQdzf2l_l0jz66u7pEX-11" target="8dQdzf2l_l0jz66u7pEX-2">
          <mxGeometry relative="1" as="geometry" />
        </mxCell>
        <mxCell id="8dQdzf2l_l0jz66u7pEX-11" value="redis" style="shape=cylinder3;whiteSpace=wrap;html=1;boundedLbl=1;backgroundOutline=1;size=15;" vertex="1" parent="1">
          <mxGeometry x="360" y="470" width="60" height="60" as="geometry" />
        </mxCell>
        <mxCell id="8dQdzf2l_l0jz66u7pEX-16" style="edgeStyle=orthogonalEdgeStyle;rounded=0;orthogonalLoop=1;jettySize=auto;html=1;entryX=0.25;entryY=1;entryDx=0;entryDy=0;" edge="1" parent="1" source="8dQdzf2l_l0jz66u7pEX-12" target="8dQdzf2l_l0jz66u7pEX-3">
          <mxGeometry relative="1" as="geometry" />
        </mxCell>
        <mxCell id="8dQdzf2l_l0jz66u7pEX-12" value="Mongo" style="shape=cylinder3;whiteSpace=wrap;html=1;boundedLbl=1;backgroundOutline=1;size=15;" vertex="1" parent="1">
          <mxGeometry x="470" y="470" width="60" height="60" as="geometry" />
        </mxCell>
        <mxCell id="8dQdzf2l_l0jz66u7pEX-17" style="edgeStyle=orthogonalEdgeStyle;rounded=0;orthogonalLoop=1;jettySize=auto;html=1;exitX=0.5;exitY=0;exitDx=0;exitDy=0;exitPerimeter=0;" edge="1" parent="1" source="8dQdzf2l_l0jz66u7pEX-13" target="8dQdzf2l_l0jz66u7pEX-3">
          <mxGeometry relative="1" as="geometry" />
        </mxCell>
        <mxCell id="8dQdzf2l_l0jz66u7pEX-13" value="neo4j" style="shape=cylinder3;whiteSpace=wrap;html=1;boundedLbl=1;backgroundOutline=1;size=15;" vertex="1" parent="1">
          <mxGeometry x="560" y="470" width="60" height="60" as="geometry" />
        </mxCell>
        <mxCell id="8dQdzf2l_l0jz66u7pEX-18" value="Github/Gitlab" style="rounded=0;whiteSpace=wrap;html=1;" vertex="1" parent="1">
          <mxGeometry x="50" y="240" width="760" height="70" as="geometry" />
        </mxCell>
        <mxCell id="8dQdzf2l_l0jz66u7pEX-19" value="branches/tags" style="rounded=0;whiteSpace=wrap;html=1;fillColor=#f8cecc;strokeColor=#b85450;" vertex="1" parent="1">
          <mxGeometry x="90" y="255" width="100" height="40" as="geometry" />
        </mxCell>
        <mxCell id="8dQdzf2l_l0jz66u7pEX-20" value="&lt;span&gt;branches/tags&lt;/span&gt;" style="rounded=0;whiteSpace=wrap;html=1;fillColor=#d5e8d4;strokeColor=#82b366;" vertex="1" parent="1">
          <mxGeometry x="280" y="255" width="100" height="40" as="geometry" />
        </mxCell>
        <mxCell id="8dQdzf2l_l0jz66u7pEX-21" value="&lt;span style=&quot;color: rgb(0 , 0 , 0)&quot;&gt;branches/tags&lt;/span&gt;" style="rounded=0;whiteSpace=wrap;html=1;fillColor=#008a00;fontColor=#ffffff;strokeColor=#005700;" vertex="1" parent="1">
          <mxGeometry x="480" y="255" width="100" height="40" as="geometry" />
        </mxCell>
        <mxCell id="8dQdzf2l_l0jz66u7pEX-22" value="&lt;span style=&quot;color: rgb(0 , 0 , 0)&quot;&gt;branches/tags&lt;/span&gt;" style="rounded=0;whiteSpace=wrap;html=1;fillColor=#1ba1e2;fontColor=#ffffff;strokeColor=#006EAF;" vertex="1" parent="1">
          <mxGeometry x="660" y="255" width="100" height="40" as="geometry" />
        </mxCell>
        <mxCell id="8dQdzf2l_l0jz66u7pEX-23" value="" style="rounded=0;whiteSpace=wrap;html=1;" vertex="1" parent="1">
          <mxGeometry x="30" y="20" width="800" height="180" as="geometry" />
        </mxCell>
        <mxCell id="8dQdzf2l_l0jz66u7pEX-24" value="Cluster&amp;nbsp; 1" style="rounded=0;whiteSpace=wrap;html=1;" vertex="1" parent="1">
          <mxGeometry x="70" y="80" width="120" height="100" as="geometry" />
        </mxCell>
        <mxCell id="8dQdzf2l_l0jz66u7pEX-25" value="Cluster&amp;nbsp; 2" style="rounded=0;whiteSpace=wrap;html=1;" vertex="1" parent="1">
          <mxGeometry x="250" y="80" width="120" height="100" as="geometry" />
        </mxCell>
        <mxCell id="8dQdzf2l_l0jz66u7pEX-26" value="Cluster&amp;nbsp; 3" style="rounded=0;whiteSpace=wrap;html=1;" vertex="1" parent="1">
          <mxGeometry x="690" y="80" width="120" height="100" as="geometry" />
        </mxCell>
        <mxCell id="8dQdzf2l_l0jz66u7pEX-27" value="Azure /&amp;nbsp; GCP/ AWS" style="text;html=1;strokeColor=none;fillColor=none;align=center;verticalAlign=middle;whiteSpace=wrap;rounded=0;" vertex="1" parent="1">
          <mxGeometry x="330" y="30" width="195" height="30" as="geometry" />
        </mxCell>
      </root>
    </mxGraphModel>
  </diagram>
</mxfile>
